# xmcd
#
# Track frame offsets: 
#        150
#        14835
#        29727
#        47065
#        58762
#        78447
#        90307
#        100312
#        120427
#        131505
#        145417
#        156034
#        168395
#
# Disc length: 2410 seconds
#
# Revision: 0
# Processed by: cddbd v1.5.2PL0 Copyright (c) Steve Scherf et al.
# Submitted via: ExactAudioCopy v0.99pb4
#
DISCID=ad09680d
DTITLE=Blauw bloed - Over de tijd
DYEAR=1998
DGENRE=Nederlandstalig
TTITLE0=Mannenmoed
TTITLE1=Op de pier
TTITLE2=Alleen de maan
TTITLE3=Voor altijd van jou
TTITLE4=Kei van een kerel
TTITLE5=Over de tijd
TTITLE6=Wandelend lijk
TTITLE7=Langs de zee
TTITLE8=Kil in mijn hart
TTITLE9=Net als ik
TTITLE10=Diep in mijn ziel
TTITLE11=Moet dat nou?
TTITLE12=Zo moe
EXTD=
EXTT0=
EXTT1=
EXTT2=
EXTT3=
EXTT4=
EXTT5=
EXTT6=
EXTT7=
EXTT8=
EXTT9=
EXTT10=
EXTT11=
EXTT12=
PLAYORDER=
